<svg width="122" height="52" viewBox="0 0 122 52" fill="none" xmlns="http://www.w3.org/2000/svg">
<path d="M37.5506 0H31.0127V7.28382V9.06V15.6001V18.6741V24.6601H37.5506V18.6741V15.6001V9.06V8.28674V5.69305H52.803V8.05708V9.06V15.6001V17.49V24.6601H59.3431V17.49V15.6001V9.06V7.58301V0H52.803H37.5506Z" fill="#D1D2CD"/>
<path d="M87.5167 0H62.0244V24.6579H68.5645V15.166H87.5188C89.0864 15.166 90.3569 13.8955 90.3569 12.3279V2.8381C90.3548 1.27051 89.0843 0 87.5167 0ZM68.5645 5.69305H83.8169V9.47507H68.5645V5.69305Z" fill="#D1D2CD"/>
<path d="M102.942 12.33L99.5751 15.8445V15.6001V9.06V7.96648V0H93.0371V6.5548V9.06V15.6001V19.1292V24.6601H99.6572L111.45 12.33L114.827 8.79663V9.06V15.6001V18.219V24.6601H121.368V18.219V15.6001V9.06V7.73892V0H114.745L102.942 12.33Z" fill="#D1D2CD"/>
<path d="M25.4944 0H0V12.33V24.6601H25.4944C27.062 24.6601 28.3325 23.3895 28.3325 21.822V15.6001C28.3325 13.8007 26.8787 12.3406 25.0793 12.3321V12.3279C26.8766 12.3195 28.3325 10.8594 28.3325 9.06V2.8381C28.3325 1.27051 27.062 0 25.4944 0ZM6.54005 5.69094H21.7925V9.47297H6.54005V5.69094ZM21.7925 18.967H6.54005V15.166L21.7925 15.1744V18.967Z" fill="#D1D2CD"/>
<path d="M25.4797 27.342H0V51.9999H28.3304V30.1927C28.3304 28.6167 27.0536 27.3398 25.4776 27.3398L25.4797 27.342ZM3.27003 43.6099L5.98381 39.672L3.27003 35.734L5.1937 34.7269L8.60489 39.672L5.1937 44.6171L3.27003 43.6099ZM10.1683 44.143L8.20246 43.2033L10.636 39.672L8.20246 36.1407L10.1683 35.201L13.2571 39.672L10.1683 44.143ZM18.1621 44.143L15.0754 39.672L18.1621 35.201L20.1279 36.1407L17.6965 39.672L20.1279 43.2033L18.1621 44.143ZM25.0604 43.6099L23.1388 44.6171L19.7276 39.672L23.1388 34.7269L25.0604 35.734L22.3466 39.672L25.0604 43.6099Z" fill="#D1D2CD"/>
<path d="M31.0127 33.0329H41.9184V34.6237V36.3998V42.9399V44.1914V51.9999H48.4585V44.1914V42.9399V36.3998V35.7635V33.0329H59.3431V27.3398H31.0127V33.0329Z" fill="#D1D2CD"/>
<path d="M97.1352 27.3398V34.4404H97.1162V46.0582H97.1352V46.3068H92.7695V51.9978H103.675V42.9378C103.675 42.8746 103.66 42.8156 103.656 42.7524V36.5853C103.66 36.522 103.675 36.4631 103.675 36.3998V33.0329H114.827V51.9999H121.368V27.342H97.1373L97.1352 27.3398Z" fill="#D1D2CD"/>
<path d="M84.5269 27.3398L77.0872 37.6682L69.6496 27.3398H62.0244L68.5286 36.5305L72.1295 41.6188L73.1766 43.0979L66.7651 51.9999H74.7L80.7533 43.4477L81.16 42.8725L82.047 41.6188L85.336 36.9729L92.1521 27.3398H84.5269Z" fill="#D1D2CD"/>
</svg>
