<svg preserveAspectRatio="none" overflow="visible" style="display: block;" width="22" height="22" viewBox="0 0 22 22" fill="none" xmlns="http://www.w3.org/2000/svg">
<g id="Union">
<path fill-rule="evenodd" clip-rule="evenodd" d="M11 0C17.0751 0 22 4.92487 22 11C22 17.0751 17.0751 22 11 22C4.92487 22 0 17.0751 0 11C0 4.92487 4.92487 0 11 0ZM11 2C6.02944 2 2 6.02944 2 11C2 15.9706 6.02944 20 11 20C15.9706 20 20 15.9706 20 11C20 6.02944 15.9706 2 11 2Z" fill="black"/>
<path d="M3.57606 8.33976L4.91631 7.63781L7.29407 11.0856L4.91631 14.5335L3.57606 13.8315L5.46762 11.0856L3.57606 8.33976ZM10.5383 11.0856L8.38545 14.2031L7.01554 13.5475L8.7118 11.0856L7.01554 8.62377L8.38545 7.96819L10.5383 11.0856Z" fill="black"/>
<path d="M13.6174 7.95041L14.9874 8.60599L13.2917 11.0679L14.9874 13.5297L13.6174 14.1853L11.4652 11.0679L13.6174 7.95041ZM16.535 11.0679L18.4265 13.8137L17.0866 14.5157L14.7082 11.0679L17.0869 7.62003L18.4268 8.32198L16.535 11.0679Z" fill="black"/>
</g>
</svg>
