<svg preserveAspectRatio="none" overflow="visible" style="display: block;" width="18.3333" height="18.3333" viewBox="0 0 18.3333 18.3333" fill="none" xmlns="http://www.w3.org/2000/svg">
<g id="Union">
<path fill-rule="evenodd" clip-rule="evenodd" d="M9.16667 0C14.2293 0 18.3333 4.10406 18.3333 9.16667C18.3333 14.2293 14.2293 18.3333 9.16667 18.3333C4.10406 18.3333 0 14.2293 0 9.16667C0 4.10406 4.10406 0 9.16667 0ZM9.16667 1.66667C5.02453 1.66667 1.66667 5.02453 1.66667 9.16667C1.66667 13.3088 5.02453 16.6667 9.16667 16.6667C13.3088 16.6667 16.6667 13.3088 16.6667 9.16667C16.6667 5.02453 13.3088 1.66667 9.16667 1.66667Z" fill="black"/>
<path d="M2.98005 6.9498L4.09693 6.36484L6.07839 9.23803L4.09693 12.1112L2.98005 11.5263L4.55635 9.23803L2.98005 6.9498ZM8.78188 9.23803L6.98788 11.8359L5.84628 11.2896L7.25984 9.23803L5.84628 7.18648L6.98788 6.64016L8.78188 9.23803Z" fill="black"/>
<path d="M11.3479 6.62534L12.4895 7.17166L11.0764 9.22321L12.4895 11.2748L11.3479 11.8211L9.55434 9.22321L11.3479 6.62534ZM13.7792 9.22321L15.3555 11.5114L14.2388 12.0964L12.2569 9.22321L14.2391 6.35002L15.3557 6.93498L13.7792 9.22321Z" fill="black"/>
</g>
</svg>
