<svg preserveAspectRatio="none" overflow="visible" style="display: block;" width="16.5" height="16.5" viewBox="0 0 16.5 16.5" fill="none" xmlns="http://www.w3.org/2000/svg">
<g id="Union">
<path fill-rule="evenodd" clip-rule="evenodd" d="M8.25 0C12.8063 0 16.5 3.69365 16.5 8.25C16.5 12.8063 12.8063 16.5 8.25 16.5C3.69365 16.5 0 12.8063 0 8.25C0 3.69365 3.69365 0 8.25 0ZM8.25 1.5C4.52208 1.5 1.5 4.52208 1.5 8.25C1.5 11.9779 4.52208 15 8.25 15C11.9779 15 15 11.9779 15 8.25C15 4.52208 11.9779 1.5 8.25 1.5Z" fill="black"/>
<path d="M2.68205 6.25482L3.68723 5.72836L5.47055 8.31423L3.68723 10.9001L2.68205 10.3736L4.10071 8.31423L2.68205 6.25482ZM7.9037 8.31423L6.28909 10.6523L5.26165 10.1606L6.53385 8.31423L5.26165 6.46783L6.28909 5.97614L7.9037 8.31423Z" fill="black"/>
<path d="M10.2131 5.96281L11.2405 6.45449L9.96875 8.30089L11.2405 10.1473L10.2131 10.639L8.59891 8.30089L10.2131 5.96281ZM12.4012 8.30089L13.8199 10.3603L12.8149 10.8868L11.0312 8.30089L12.8152 5.71502L13.8201 6.24148L12.4012 8.30089Z" fill="black"/>
</g>
</svg>
