<svg preserveAspectRatio="none" overflow="visible" style="display: block;" width="16.5" height="16.5" viewBox="0 0 16.5 16.5" fill="none" xmlns="http://www.w3.org/2000/svg">
<g id="Union">
<path d="M10.4583 11.0068L8.25 13.2151L7.29053 12.2549L9.49805 10.0474L10.4583 11.0068Z" fill="#FF9200"/>
<path d="M8.05811 6.30322L7.0979 7.26343L5.84985 6.01538L4.40991 7.45532L8.05811 11.1035L7.0979 12.0637L2.4895 7.45532L5.84985 4.09497L8.05811 6.30322Z" fill="#FF9200"/>
<path d="M11.6104 9.85474L10.6501 10.8149L8.44189 8.60669L9.4021 7.64722L11.6104 9.85474Z" fill="#FF9200"/>
<path d="M14.0105 7.45532L11.8022 9.66357L10.842 8.70337L12.0901 7.45532L10.6501 6.01538L7.00195 9.66357L6.04175 8.70337L10.6501 4.09497L14.0105 7.45532Z" fill="#FF9200"/>
<path fill-rule="evenodd" clip-rule="evenodd" d="M8.25 0C12.8063 0 16.5 3.69365 16.5 8.25C16.5 12.8063 12.8063 16.5 8.25 16.5C3.69365 16.5 0 12.8063 0 8.25C0 3.69365 3.69365 0 8.25 0ZM8.25 1.5C4.52208 1.5 1.5 4.52208 1.5 8.25C1.5 11.9779 4.52208 15 8.25 15C11.9779 15 15 11.9779 15 8.25C15 4.52208 11.9779 1.5 8.25 1.5Z" fill="#FF9200"/>
</g>
</svg>
