<svg preserveAspectRatio="none" overflow="visible" style="display: block;" width="18.3333" height="18.3333" viewBox="0 0 18.3333 18.3333" fill="none" xmlns="http://www.w3.org/2000/svg">
<g id="Union">
<path d="M11.6203 12.2298L9.16667 14.6834L8.10059 13.6165L10.5534 11.1637L11.6203 12.2298Z" fill="#FF9200"/>
<path d="M8.95345 7.00358L7.88656 8.07048L6.49984 6.68376L4.8999 8.28369L8.95345 12.3372L7.88656 13.4041L2.76611 8.28369L6.49984 4.54997L8.95345 7.00358Z" fill="#FF9200"/>
<path d="M12.9004 10.9497L11.8335 12.0166L9.37988 9.56299L10.4468 8.49691L12.9004 10.9497Z" fill="#FF9200"/>
<path d="M15.5672 8.28369L13.1136 10.7373L12.0467 9.67041L13.4334 8.28369L11.8335 6.68376L7.77995 10.7373L6.71305 9.67041L11.8335 4.54997L15.5672 8.28369Z" fill="#FF9200"/>
<path fill-rule="evenodd" clip-rule="evenodd" d="M9.16667 0C14.2293 0 18.3333 4.10406 18.3333 9.16667C18.3333 14.2293 14.2293 18.3333 9.16667 18.3333C4.10406 18.3333 0 14.2293 0 9.16667C0 4.10406 4.10406 0 9.16667 0ZM9.16667 1.66667C5.02453 1.66667 1.66667 5.02453 1.66667 9.16667C1.66667 13.3088 5.02453 16.6667 9.16667 16.6667C13.3088 16.6667 16.6667 13.3088 16.6667 9.16667C16.6667 5.02453 13.3088 1.66667 9.16667 1.66667Z" fill="#FF9200"/>
</g>
</svg>
