<svg preserveAspectRatio="none" overflow="visible" style="display: block;" width="25.6667" height="24.5" viewBox="0 0 25.6667 24.5" fill="none" xmlns="http://www.w3.org/2000/svg">
<path id="Union" d="M21.5446 8.97609L21.8323 8.31613C22.3451 7.13939 23.2686 6.20248 24.421 5.68993L25.3072 5.29576C25.7865 5.08262 25.7865 4.38528 25.3072 4.17214L24.4706 3.8C23.2885 3.27426 22.3484 2.30269 21.8444 1.08597L21.549 0.372786C21.3432 -0.124262 20.6568 -0.124262 20.4509 0.372786L20.1555 1.08597C19.6516 2.30269 18.7115 3.27426 17.5294 3.8L16.6928 4.17214C16.2135 4.38528 16.2135 5.08262 16.6928 5.29576L17.579 5.68993C18.7314 6.20248 19.655 7.13939 20.1677 8.31613L20.4553 8.97609C20.6659 9.45924 21.3341 9.45924 21.5446 8.97609ZM4.66667 5.83333C4.29946 5.83333 3.95367 6.00622 3.73333 6.3L0.233334 10.9667C-0.101106 11.4126 -0.0733907 12.0328 0.299496 12.4472L10.7995 24.1138C11.0208 24.3597 11.3359 24.5 11.6667 24.5C11.9974 24.5 12.3127 24.3597 12.5339 24.1138L23.0339 12.4472L21.2995 10.8862L11.6667 21.5894L2.67558 11.5992L5.25 8.16667H15.1667V5.83333H4.66667Z" fill="black"/>
</svg>
