<svg preserveAspectRatio="none" overflow="visible" style="display: block;" width="21" height="19.8333" viewBox="0 0 21 19.8333" fill="none" xmlns="http://www.w3.org/2000/svg">
<path id="Vector" d="M18.6667 6.16703C18.6667 5.11974 18.2691 4.13581 17.5934 3.42694L17.5832 3.41668L17.5729 3.40529C16.3093 2.04659 14.0694 2.02925 12.7878 3.39276L12.2682 3.98065L10.5843 5.88106L8.24414 3.42694L8.23731 3.4201C6.91466 2.02082 4.9306 1.96602 3.53874 3.29477L3.40658 3.42694C2.73091 4.13581 2.33333 5.11973 2.33333 6.16703C2.33338 7.14883 2.68312 8.07447 3.28353 8.77041L3.40658 8.90713L3.41569 8.91624L10.5 16.4313L17.5843 8.91624L17.5934 8.90713C18.2691 8.19829 18.6666 7.21433 18.6667 6.16703ZM20.9932 6.47238C20.9211 7.99252 20.3131 9.43531 19.2819 10.517L10.5 19.8333L1.7181 10.517C0.686949 9.43531 0.0788628 7.99252 0.00683594 6.47238L0 6.16703C0 4.6376 0.543284 3.16678 1.51758 2.03809L1.7181 1.81706C4.02917 -0.605687 7.64256 -0.605687 9.93262 1.81706L10.5205 2.43344L11.0674 1.81706C13.2778 -0.560344 17.0991 -0.530673 19.2819 1.81706C20.3819 2.971 21 4.53566 21 6.16703L20.9932 6.47238Z" fill="white"/>
</svg>
